<svg id="Layer_1" height="512" viewBox="0 0 256 256" width="512" xmlns="http://www.w3.org/2000/svg"><g><g><g><g><g><g><g><g><path d="m144.296 34.605c13.844-15.334 39.276-4.8 38.222 15.832-.664 12.993 10.053 23.709 23.046 23.046 20.632-1.054 31.166 24.378 15.832 38.222-9.656 8.718-9.656 23.874 0 32.592 15.334 13.844 4.8 39.276-15.832 38.222-12.993-.664-23.709 10.053-23.046 23.046 1.054 20.632-24.378 31.166-38.222 15.832-8.718-9.657-23.874-9.657-32.592 0-13.844 15.334-39.276 4.8-38.222-15.832.664-12.993-10.053-23.71-23.046-23.046-20.632 1.054-31.166-24.378-15.832-38.222 9.656-8.718 9.656-23.874 0-32.592-15.334-13.844-4.8-39.276 15.832-38.222 12.993.663 23.71-10.053 23.046-23.046-1.053-20.632 24.378-31.167 38.222-15.832 8.718 9.656 23.874 9.656 32.592 0z" fill="#ffc91d"/></g></g><g><g><path d="m221.395 144.296c-9.656-8.718-9.656-23.874 0-32.592 11.315-10.215 8.535-26.728-1.983-34.265 6.062 8.426 6.206 20.938-3.017 29.265-9.656 8.718-9.656 23.874 0 32.592 15.334 13.844 4.8 39.276-15.832 38.222-12.993-.664-23.709 10.053-23.046 23.046 1.054 20.632-24.378 31.166-38.222 15.832-8.718-9.657-23.874-9.657-32.592 0-8.327 9.223-20.839 9.079-29.265 3.017 7.537 10.518 24.05 13.297 34.265 1.983 8.718-9.657 23.874-9.657 32.592 0 13.844 15.334 39.276 4.8 38.222-15.832-.664-12.993 10.053-23.709 23.046-23.046 20.632 1.054 31.167-24.378 15.832-38.222z" fill="#ffa91a"/></g></g><g><g><ellipse cx="128" cy="128" fill="#8c3f0a" rx="74.462" ry="74.462" transform="matrix(.885 -.466 .466 .885 -44.915 74.444)"/></g></g><g><g><path d="m70.58 92.75c-.391 0-.761-.11-1.09-.32-.921-.61-1.181-1.85-.58-2.77 6.279-9.66 14.92-17.721 24.989-23.31 10.381-5.76 22.17-8.81 34.101-8.81 14.56 0 28.54 4.42 40.439 12.79.9.63 1.12 1.88.49 2.779-.62.87-1.92 1.101-2.79.49-11.22-7.89-24.41-12.06-38.14-12.06-22.55 0-43.38 11.319-55.74 30.29v.01c-.369.571-.999.911-1.679.911zm104.958-15.808c0 1.098-.89 1.988-1.988 1.988s-1.988-.89-1.988-1.988.89-1.988 1.988-1.988 1.988.89 1.988 1.988z" fill="#995222"/></g></g><g><path d="m175.415 70.585c10.648 12.879 17.047 29.399 17.047 47.415 0 41.125-33.338 74.462-74.462 74.462-18.016 0-34.536-6.399-47.415-17.047 13.658 16.52 34.306 27.047 57.415 27.047 41.124 0 74.462-33.337 74.462-74.462 0-23.108-10.528-43.757-27.047-57.415z" fill="#7c3108"/></g><g><path d="m178.092 72.906c12.034 13.227 19.37 30.804 19.37 50.094 0 41.125-33.338 74.462-74.462 74.462-19.29 0-36.866-7.336-50.093-19.369 13.62 14.971 33.259 24.369 55.093 24.369 41.124 0 74.462-33.337 74.462-74.462 0-21.834-9.398-41.473-24.37-55.094z" fill="#6d2e03"/></g></g></g></g></g></g><g><path d="m90.302 129.221-6.561-4.767c-1.067-.775-2.513-.775-3.58 0l-6.561 4.767c-2.387 1.734-5.598-.599-4.686-3.405l2.506-7.713c.408-1.255-.039-2.629-1.106-3.405l-6.561-4.767c-2.387-1.734-1.16-5.509 1.79-5.509h8.11c1.319 0 2.489-.849 2.896-2.104l2.506-7.713c.912-2.806 4.881-2.806 5.792 0l2.506 7.713c.408 1.255 1.577 2.104 2.896 2.104h8.11c2.95 0 4.177 3.775 1.79 5.509l-6.561 4.767c-1.067.775-1.514 2.15-1.106 3.405l2.506 7.713c.912 2.806-2.299 5.139-4.686 3.405zm50.735-3.405-2.506-7.713c-.408-1.255.039-2.629 1.106-3.405l6.561-4.767c2.387-1.734 1.16-5.509-1.79-5.509h-8.11c-1.319 0-2.489-.849-2.896-2.104l-2.506-7.713c-.912-2.806-4.881-2.806-5.792 0l-2.506 7.713c-.408 1.255-1.577 2.104-2.896 2.104h-8.11c-2.95 0-4.177 3.775-1.79 5.509l6.561 4.767c1.067.775 1.514 2.15 1.106 3.405l-2.506 7.713c-.912 2.806 2.299 5.139 4.686 3.405l6.561-4.767c1.067-.775 2.513-.775 3.58 0l6.561 4.767c2.387 1.734 5.598-.599 4.686-3.405zm-19.09 14.196h-8.11c-1.319 0-2.489-.85-2.896-2.104l-2.506-7.713c-.912-2.805-4.881-2.805-5.792 0l-2.506 7.713c-.408 1.255-1.577 2.104-2.896 2.104h-8.11c-2.95 0-4.177 3.775-1.79 5.509l6.561 4.767c1.067.775 1.514 2.15 1.106 3.405l-2.506 7.713c-.912 2.805 2.3 5.139 4.686 3.404l6.561-4.767c1.067-.776 2.513-.776 3.58 0l6.561 4.767c2.387 1.734 5.598-.599 4.686-3.404l-2.506-7.713c-.408-1.255.039-2.629 1.106-3.405l6.561-4.767c2.387-1.734 1.16-5.509-1.79-5.509zm44.924 0h-8.11c-1.319 0-2.489-.85-2.896-2.104l-2.506-7.713c-.912-2.805-4.881-2.805-5.792 0l-2.506 7.713c-.408 1.255-1.577 2.104-2.896 2.104h-8.11c-2.95 0-4.177 3.775-1.79 5.509l6.561 4.767c1.067.775 1.514 2.15 1.106 3.405l-2.506 7.713c-.912 2.805 2.3 5.139 4.686 3.404l6.561-4.767c1.067-.776 2.513-.776 3.58 0l6.561 4.767c2.387 1.734 5.598-.599 4.686-3.404l-2.506-7.713c-.408-1.255.039-2.629 1.106-3.405l6.561-4.767c2.386-1.734 1.16-5.509-1.79-5.509zm23.587-35.59h-8.11c-1.319 0-2.489-.849-2.896-2.104l-2.506-7.713c-.912-2.806-4.881-2.806-5.792 0l-2.506 7.713c-.408 1.255-1.577 2.104-2.896 2.104h-8.11c-2.95 0-4.177 3.775-1.79 5.509l6.561 4.767c1.067.775 1.514 2.15 1.106 3.405l-2.506 7.713c-.912 2.806 2.3 5.139 4.686 3.405l6.561-4.767c1.067-.775 2.513-.775 3.58 0l6.561 4.767c2.387 1.734 5.598-.599 4.686-3.405l-2.506-7.713c-.408-1.255.039-2.629 1.106-3.405l6.561-4.767c2.386-1.734 1.16-5.509-1.79-5.509z" fill="#ffa91a"/></g><g><g><path d="m141.199 104.932-6.561 4.767c-1.067.775-1.514 2.15-1.106 3.405l2.506 7.713c.912 2.806-2.299 5.139-4.686 3.405l-6.561-4.767c-1.067-.775-2.513-.775-3.58 0l-5.472 3.976-.776 2.387c-.912 2.806 2.299 5.139 4.686 3.405l6.561-4.767c1.067-.775 2.513-.775 3.58 0l6.561 4.767c2.387 1.734 5.598-.599 4.686-3.405l-2.506-7.713c-.408-1.255.039-2.629 1.106-3.405l6.561-4.767c2.387-1.734 1.16-5.509-1.79-5.509h-2.669c-.156.18-.329.354-.54.508z" fill="#f79219"/></g><g><path d="m190.458 104.422h-2.669c-.156.182-.329.355-.541.509l-6.561 4.767c-1.067.775-1.514 2.15-1.106 3.405l2.506 7.713c.912 2.806-2.3 5.139-4.686 3.405l-6.561-4.767c-1.067-.775-2.513-.775-3.58 0l-5.472 3.976-.776 2.387c-.912 2.806 2.3 5.139 4.686 3.405l6.561-4.767c1.067-.775 2.513-.775 3.58 0l6.561 4.767c2.387 1.734 5.598-.599 4.686-3.405l-2.506-7.713c-.408-1.255.039-2.629 1.106-3.405l6.561-4.767c2.387-1.735 1.161-5.51-1.789-5.51z" fill="#f79219"/></g><g><path d="m121.947 140.012h-2.67c-.156.182-.329.355-.54.509l-6.561 4.767c-1.068.775-1.514 2.15-1.106 3.405l2.506 7.713c.911 2.805-2.3 5.139-4.686 3.404l-6.561-4.767c-1.067-.776-2.513-.776-3.58 0l-5.472 3.975-.776 2.387c-.912 2.805 2.3 5.139 4.686 3.404l6.561-4.767c1.067-.776 2.513-.776 3.58 0l6.561 4.767c2.387 1.734 5.598-.599 4.686-3.404l-2.506-7.713c-.408-1.255.039-2.629 1.106-3.405l6.561-4.767c2.388-1.733 1.161-5.508-1.789-5.508z" fill="#f79219"/></g><g><path d="m166.871 140.012h-2.67c-.156.182-.329.355-.541.509l-6.561 4.767c-1.067.775-1.514 2.15-1.106 3.405l2.506 7.713c.912 2.805-2.3 5.139-4.686 3.404l-6.561-4.767c-1.067-.776-2.513-.776-3.58 0l-5.472 3.975-.776 2.387c-.912 2.805 2.3 5.139 4.686 3.404l6.561-4.767c1.067-.776 2.513-.776 3.58 0l6.561 4.767c2.387 1.734 5.598-.599 4.686-3.404l-2.506-7.713c-.408-1.255.039-2.629 1.106-3.405l6.561-4.767c2.388-1.733 1.162-5.508-1.788-5.508z" fill="#f79219"/></g><g><path d="m83.741 124.454 6.561 4.767c2.387 1.734 5.598-.599 4.686-3.405l-2.506-7.713c-.408-1.255.039-2.629 1.106-3.405l6.561-4.767c2.386-1.734 1.16-5.509-1.79-5.509h-2.669c-.156.182-.329.355-.541.509l-6.561 4.767c-1.067.775-1.514 2.15-1.106 3.405l2.506 7.713c.912 2.806-2.3 5.139-4.686 3.405l-6.561-4.767c-1.067-.775-2.513-.775-3.58 0l-5.472 3.976-.776 2.387c-.912 2.806 2.3 5.139 4.686 3.405l6.561-4.767c1.069-.776 2.514-.776 3.581-.001z" fill="#f79219"/></g></g></g></svg>